<svg width="1000" height="800" xmlns="http://www.w3.org/2000/svg">
 <!-- Created with SVG-edit - http://svg-edit.googlecode.com/ -->
 <g>
  <title>Layer 1</title>
  <path id="svg_1" d="m107.657501,281.605682l116.115326,0m-57.791916,49.83844l56.731384,55.670868m-56.732285,-56.200623l-53.021362,56.200623m52.756409,-122.4776l0,66.276978m17.624802,-84.175568c0,9.734222 -7.890656,17.625793 -17.624802,17.625793c-9.734085,0 -17.625549,-7.891571 -17.625549,-17.625793c0,-9.732208 7.891464,-17.623795 17.625549,-17.623795c9.734146,0 17.624802,7.891586 17.624802,17.623795z" stroke-width="5" stroke="#000000" fill="#FF0000"/>
  <path transform="rotate(-130 296.101 172.798)" id="svg_3" d="m281.587494,172.763428l14.51413,-14.465225l14.513672,14.465225l-7.256592,0l0,14.534775l-14.51413,0l0,-14.534775l-7.25708,0z" stroke-linecap="null" stroke-linejoin="null" stroke-dasharray="null" stroke-width="5" stroke="#000000" fill="#FF0000"/>
  <text xml:space="preserve" text-anchor="middle" font-family="Sans-serif" font-size="14" id="svg_7" y="195" x="413" stroke-linecap="null" stroke-linejoin="null" stroke-dasharray="null" stroke-width="0" stroke="#000000" fill="#000000">Pitch (limited by Min/Max)</text>
  <text xml:space="preserve" text-anchor="middle" font-family="Sans-serif" font-size="14" id="svg_8" y="298" x="69" stroke-linecap="null" stroke-linejoin="null" stroke-dasharray="null" stroke-width="0" stroke="#000000" fill="#000000">Max Pitch 180°</text>
  <text id="svg_9" xml:space="preserve" text-anchor="middle" font-family="Sans-serif" font-size="14" y="450" x="216" stroke-linecap="null" stroke-linejoin="null" stroke-dasharray="null" stroke-width="0" stroke="#000000" fill="#000000">Min Pitch -90°</text>
  <line id="svg_10" y2="258" x2="349" y1="305" x1="170" stroke-linecap="null" stroke-linejoin="null" stroke-dasharray="null" stroke-width="5" stroke="#000cff" fill="none"/>
  <text style="cursor: move;" xml:space="preserve" text-anchor="middle" font-family="Sans-serif" font-size="14" id="svg_11" y="311" x="279" stroke-linecap="null" stroke-linejoin="null" stroke-dasharray="null" stroke-width="0" stroke="#000cff" fill="#000000">Target Offset Position</text>
  <ellipse ry="9" rx="9" id="svg_12" cy="305" cx="162" stroke-linecap="null" stroke-linejoin="null" stroke-dasharray="null" stroke-width="5" stroke="#0cff00" fill="#000000"/>
  <text xml:space="preserve" text-anchor="middle" font-family="Sans-serif" font-size="14" id="svg_13" y="329" x="106" stroke-linecap="null" stroke-linejoin="null" stroke-dasharray="null" stroke-width="0" stroke="#0cff00" fill="#000000">Position Anchor</text>
  <text id="svg_14" xml:space="preserve" text-anchor="middle" font-family="Sans-serif" font-size="14" y="215.5" x="166" stroke-linecap="null" stroke-linejoin="null" stroke-dasharray="null" stroke-width="0" stroke="#0cff00" fill="#000000">Entity</text>
  <text id="svg_15" xml:space="preserve" text-anchor="middle" font-family="Sans-serif" font-size="14" y="147.5" x="317" stroke-linecap="null" stroke-linejoin="null" stroke-dasharray="null" stroke-width="0" stroke="#0cff00" fill="#000000">Camera Entity</text>
  <path id="svg_16" d="m96.942383,632.990723l116.115295,0m-57.791931,49.838379l56.731384,55.670898m-56.732239,-56.200623l-53.021362,56.200623m52.756409,-122.477661l0,66.277039m17.624756,-84.175598c0,9.734253 -7.890625,17.625793 -17.624756,17.625793c-9.73407,0 -17.625549,-7.891541 -17.625549,-17.625793c0,-9.732178 7.891479,-17.623779 17.625549,-17.623779c9.734131,0 17.624756,7.891602 17.624756,17.623779z" stroke-width="5" stroke="#000000" fill="#FF0000"/>
  <ellipse id="svg_17" ry="9" rx="9" cy="596.5" cx="136" stroke-linecap="null" stroke-linejoin="null" stroke-dasharray="null" stroke-width="5" stroke="#0cff00" fill="#000000"/>
  <text id="svg_18" xml:space="preserve" text-anchor="middle" font-family="Sans-serif" font-size="14" y="602.5" x="111" stroke-linecap="null" stroke-linejoin="null" stroke-dasharray="null" stroke-width="0" stroke="#0cff00" fill="#000000">View</text>
  <ellipse id="svg_19" ry="9" rx="9" cy="632.5" cx="101" stroke-linecap="null" stroke-linejoin="null" stroke-dasharray="null" stroke-width="5" stroke="#0cff00" fill="#000000"/>
  <text id="svg_20" xml:space="preserve" text-anchor="middle" font-family="Sans-serif" font-size="14" y="656.5" x="93" stroke-linecap="null" stroke-linejoin="null" stroke-dasharray="null" stroke-width="0" stroke="#0cff00" fill="#000000">Sample Bone</text>
  <ellipse id="svg_22" ry="9" rx="9" cy="733.5" cx="154" stroke-linecap="null" stroke-linejoin="null" stroke-dasharray="null" stroke-width="5" stroke="#0cff00" fill="#000000"/>
  <text id="svg_23" xml:space="preserve" text-anchor="middle" font-family="Sans-serif" font-size="14" y="765.5" x="161" stroke-linecap="null" stroke-linejoin="null" stroke-dasharray="null" stroke-width="0" stroke="#0cff00" fill="#000000">Position</text>
  <text font-weight="bold" id="svg_24" xml:space="preserve" text-anchor="middle" font-family="Sans-serif" font-size="18" y="499.5" x="140" stroke-linecap="null" stroke-linejoin="null" stroke-dasharray="null" stroke-width="0" stroke="#0cff00" fill="#000000">Avaible Anchors</text>
  <text id="svg_25" font-weight="bold" xml:space="preserve" text-anchor="middle" font-family="Sans-serif" font-size="18" y="83" x="171" stroke-linecap="null" stroke-linejoin="null" stroke-dasharray="null" stroke-width="0" stroke="#0cff00" fill="#000000">GOC like Mode</text>
  <text id="svg_26" xml:space="preserve" text-anchor="middle" font-family="Sans-serif" font-size="14" y="327.5" x="270" stroke-linecap="null" stroke-linejoin="null" stroke-dasharray="null" stroke-width="0" stroke="#000000" fill="#000000">if zero then like firstperson</text>
  <text stroke="#000000" id="svg_27" xml:space="preserve" text-anchor="middle" font-family="Sans-serif" font-size="14" y="530.5" x="170" stroke-linecap="null" stroke-linejoin="null" stroke-dasharray="null" stroke-width="0" fill="#000000">Either the Position or Rotation of</text>
  <text xml:space="preserve" text-anchor="middle" font-family="Sans-serif" font-size="14" id="svg_28" y="550" x="184" stroke-linecap="null" stroke-linejoin="null" stroke-dasharray="null" stroke-width="0" stroke="#000000" fill="#000000">an Anchor can be used as reference</text>
  <path id="svg_29" d="m571.657532,303.605682l116.115295,0m-57.791931,49.838409l56.731384,55.670898m-56.7323,-56.200623l-53.021362,56.200623m52.756409,-122.4776l0,66.276978m17.624878,-84.175568c0,9.734222 -7.890686,17.625793 -17.624878,17.625793c-9.73407,0 -17.625488,-7.891571 -17.625488,-17.625793c0,-9.732208 7.891418,-17.62381 17.625488,-17.62381c9.734192,0 17.624878,7.891602 17.624878,17.62381z" stroke-width="5" stroke="#000000" fill="#FF0000"/>
  <line id="svg_35" y2="280" x2="813" y1="327" x1="634" stroke-linecap="null" stroke-linejoin="null" stroke-dasharray="null" stroke-width="5" stroke="#000cff" fill="none"/>
  <text id="svg_36" xml:space="preserve" text-anchor="middle" font-family="Sans-serif" font-size="14" y="337" x="721" stroke-linecap="null" stroke-linejoin="null" stroke-dasharray="null" stroke-width="0" stroke="#000cff" fill="#000000">Target Offset Position</text>
  <ellipse id="svg_37" ry="9" rx="9" cy="327" cx="626" stroke-linecap="null" stroke-linejoin="null" stroke-dasharray="null" stroke-width="5" stroke="#0cff00" fill="#000000"/>
  <text id="svg_42" stroke="#000000" xml:space="preserve" text-anchor="middle" font-family="Sans-serif" font-size="14" y="26.5" x="380" stroke-linecap="null" stroke-linejoin="null" stroke-dasharray="null" stroke-width="0" fill="#000000">Be sure to only enable Thirdperson via cvar, and set all view affecting cvars to 0 otherwise the view anchor is wrong</text>
  <text id="svg_43" font-weight="bold" xml:space="preserve" text-anchor="middle" font-family="Sans-serif" font-size="18" y="91" x="653" stroke-linecap="null" stroke-linejoin="null" stroke-dasharray="null" stroke-width="0" stroke="#0cff00" fill="#000000">Orbit like Mode</text>
  <ellipse id="svg_44" ry="9" rx="9" cy="244.5" cx="149" stroke-linecap="null" stroke-linejoin="null" stroke-dasharray="null" stroke-width="5" stroke="#0cff00" fill="#000000"/>
  <text id="svg_45" xml:space="preserve" text-anchor="middle" font-family="Sans-serif" font-size="14" y="247.5" x="88" stroke-linecap="null" stroke-linejoin="null" stroke-dasharray="null" stroke-width="0" stroke="#0cff00" fill="#000000">Rotation Anchor</text>
  <ellipse id="svg_46" ry="9" rx="9" cy="268.5" cx="613" stroke-linecap="null" stroke-linejoin="null" stroke-dasharray="null" stroke-width="5" stroke="#0cff00" fill="#000000"/>
  <line stroke="#079600" transform="rotate(-50 833 204.5)" id="svg_47" y2="171.340936" x2="901.34105" y1="237.659069" x1="764.658953" stroke-linecap="null" stroke-linejoin="null" stroke-dasharray="null" stroke-width="5" fill="none"/>
  <text style="cursor: move;" id="svg_48" xml:space="preserve" text-anchor="middle" font-family="Sans-serif" font-size="14" y="216.5" x="437" stroke-linecap="null" stroke-linejoin="null" stroke-dasharray="null" stroke-width="0" stroke="#000000" fill="#000000">based on Rotation Anchor</text>
  <ellipse id="svg_49" ry="9" rx="9" cy="280.5" cx="817" stroke-linecap="null" stroke-linejoin="null" stroke-dasharray="null" stroke-width="5" stroke="#bf0000" fill="#000000"/>
  <text style="cursor: move;" id="svg_50" xml:space="preserve" text-anchor="middle" font-family="Sans-serif" font-size="14" y="310.5" x="863" stroke-linecap="null" stroke-linejoin="null" stroke-dasharray="null" stroke-width="0" stroke="#000cff" fill="#000000">Camera Offset Rotation</text>
  <text id="svg_51" xml:space="preserve" text-anchor="middle" font-family="Sans-serif" font-size="14" y="198.5" x="755" stroke-linecap="null" stroke-linejoin="null" stroke-dasharray="null" stroke-width="0" stroke="#000cff" fill="#000000">Camera Offset Position</text>
  <path stroke="#000000" id="svg_52" d="m57.000011,284c0,-81.76799 66.679577,-148 148.999989,-148c82.320404,0 149,66.23201 149,148c0,81.767975 -66.679596,148 -149,148" stroke-linecap="null" stroke-linejoin="null" stroke-dasharray="null" stroke-width="2" fill="none"/>
  <ellipse rx="1" id="svg_53" cy="611" cx="618" stroke-linecap="null" stroke-linejoin="null" stroke-dasharray="null" stroke-width="5" stroke="#000000" fill="none"/>
  <ellipse id="svg_54" cy="534" cx="420" stroke-linecap="null" stroke-linejoin="null" stroke-dasharray="null" stroke-width="5" stroke="#000000" fill="none"/>
  <ellipse rx="1" id="svg_55" cy="523" cx="426" stroke-linecap="null" stroke-linejoin="null" stroke-dasharray="null" stroke-width="5" stroke="#000000" fill="none"/>
  <path transform="rotate(-50 758 222.5)" id="svg_56" stroke="#000000" d="m609,296.5c0,-81.768005 66.679626,-148 149,-148c82.320435,0 149,66.231995 149,148c0,81.768005 -66.679565,148 -149,148" stroke-linecap="null" stroke-linejoin="null" stroke-dasharray="null" stroke-width="2" fill="none"/>
  <text id="svg_57" font-weight="bold" xml:space="preserve" text-anchor="middle" font-family="Sans-serif" font-size="18" y="484" x="684" stroke-linecap="null" stroke-linejoin="null" stroke-dasharray="null" stroke-width="0" stroke="#0cff00" fill="#000000">Eliptical Pitch</text>
  <path id="svg_30" transform="rotate(-130 860.101 125.798)" d="m845.587524,125.763428l14.514099,-14.46521l14.513672,14.46521l-7.256592,0l0,14.53479l-14.514099,0l0,-14.53479l-7.25708,0z" stroke-linecap="null" stroke-linejoin="null" stroke-dasharray="null" stroke-width="5" stroke="#000000" fill="#ff0000"/>
  <path id="svg_58" d="m648.407532,629.105652l116.115295,0m-57.791931,49.838501l56.731384,55.670837m-56.7323,-56.200623l-53.021362,56.200623m52.75647,-122.4776l0,66.276978m17.624817,-84.175537c0,9.734192 -7.890686,17.625793 -17.624817,17.625793c-9.734131,0 -17.625549,-7.891602 -17.625549,-17.625793c0,-9.732239 7.891418,-17.623779 17.625549,-17.623779c9.734131,0 17.624817,7.891541 17.624817,17.623779z" stroke-width="5" stroke="#000000" fill="#FF0000"/>
  <text id="svg_61" xml:space="preserve" text-anchor="middle" font-family="Sans-serif" font-size="14" y="555.5" x="705.75" stroke-linecap="null" stroke-linejoin="null" stroke-dasharray="null" stroke-width="0" stroke="#000000" fill="#000000">Max Pitch 90°</text>
  <text id="svg_62" xml:space="preserve" text-anchor="middle" font-family="Sans-serif" font-size="14" y="685.5" x="759.75" stroke-linecap="null" stroke-linejoin="null" stroke-dasharray="null" stroke-width="0" stroke="#000000" fill="#000000">Min Pitch -90°</text>
  <line stroke="#000cff" id="svg_63" y2="624.500001" x2="824.750001" y1="652.5" x1="710.75" stroke-linecap="null" stroke-linejoin="null" stroke-dasharray="null" stroke-width="5" fill="none"/>
  <ellipse id="svg_65" ry="9" rx="9" cy="652.5" cx="702.75" stroke-linecap="null" stroke-linejoin="null" stroke-dasharray="null" stroke-width="5" stroke="#0cff00" fill="#000000"/>
  <text id="svg_68" xml:space="preserve" text-anchor="middle" font-family="Sans-serif" font-size="14" y="485" x="843.75" stroke-linecap="null" stroke-linejoin="null" stroke-dasharray="null" stroke-width="0" stroke="#0cff00" fill="#000000">Camera</text>
  <ellipse id="svg_70" ry="9" rx="9" cy="592" cx="689.75" stroke-linecap="null" stroke-linejoin="null" stroke-dasharray="null" stroke-width="5" stroke="#0cff00" fill="#000000"/>
  <path stroke="#000000" id="svg_73" d="m753.25,551.5c41.160217,0 74.5,34.906067 74.5,78c0,43.093933 -33.339783,78 -74.5,78" stroke-linecap="null" stroke-linejoin="null" stroke-dasharray="null" stroke-width="2" fill="none"/>
  <path id="svg_74" d="m839.5,520c-5.812134,57 -9.5,34.176819 -9.5,106c0,71.823181 -29.312134,130 -65.5,130" stroke-linecap="null" stroke-linejoin="null" stroke-dasharray="null" stroke-width="2" stroke="#000000" fill-opacity="0.01" fill="#000000"/>
  <line stroke="#ffb600" id="svg_76" y2="521.5" x2="838" y1="548.5" x1="754" stroke-linecap="null" stroke-linejoin="null" stroke-dasharray="null" stroke-width="5" fill="none"/>
  <path transform="rotate(-180 837.851 517.298)" id="svg_59" d="m823.337524,517.263428l14.514099,-14.46521l14.513672,14.46521l-7.256592,0l0,14.53479l-14.514099,0l0,-14.53479l-7.25708,0z" stroke-linecap="null" stroke-linejoin="null" stroke-dasharray="null" stroke-width="5" stroke="#000000" fill="#FF0000"/>
  <line id="svg_78" y2="706" x2="753" y1="757" x1="761" stroke-linecap="null" stroke-linejoin="null" stroke-dasharray="null" stroke-width="5" stroke="#ffb600" fill="none"/>
  <text xml:space="preserve" text-anchor="middle" font-family="Sans-serif" font-size="14" id="svg_79" y="525" x="733" stroke-linecap="null" stroke-linejoin="null" stroke-dasharray="null" stroke-width="0" stroke="#ffb600" fill="#000000">Max Pitch Position Offset</text>
  <text id="svg_80" xml:space="preserve" text-anchor="middle" font-family="Sans-serif" font-size="14" y="751.5" x="670" stroke-linecap="null" stroke-linejoin="null" stroke-dasharray="null" stroke-width="0" stroke="#ffb600" fill="#000000">Min Pitch Position Offset</text>
 </g>
</svg>